<?xml version="1.0" encoding="UTF-8" standalone="no"?>
<!-- Created with Inkscape (http://www.inkscape.org/) -->

<svg
   version="1.1"
   id="svg212"
   xml:space="preserve"
   width="124.72441"
   height="124.72441"
   viewBox="0 0 124.72441 124.72441"
   sodipodi:docname="favicon.svg"
   inkscape:version="1.1.1 (3bf5ae0d25, 2021-09-20)"
   xmlns:inkscape="http://www.inkscape.org/namespaces/inkscape"
   xmlns:sodipodi="http://sodipodi.sourceforge.net/DTD/sodipodi-0.dtd"
   xmlns="http://www.w3.org/2000/svg"
   xmlns:svg="http://www.w3.org/2000/svg"><defs
     id="defs216"><clipPath
       clipPathUnits="userSpaceOnUse"
       id="clipPath228"><path
         d="M 0,-4.076958e-5 H 612 V 791.99996 H 0 Z"
         id="path226" /></clipPath></defs><sodipodi:namedview
     id="namedview214"
     pagecolor="#ffffff"
     bordercolor="#666666"
     borderopacity="1.0"
     inkscape:pageshadow="2"
     inkscape:pageopacity="0.0"
     inkscape:pagecheckerboard="0"
     showgrid="false"
     fit-margin-top="0"
     fit-margin-left="0"
     fit-margin-right="0"
     fit-margin-bottom="0"
     inkscape:zoom="3.0151515"
     inkscape:cx="54.226131"
     inkscape:cy="90.542714"
     inkscape:window-width="1920"
     inkscape:window-height="1011"
     inkscape:window-x="0"
     inkscape:window-y="500"
     inkscape:window-maximized="1"
     inkscape:current-layer="g218" /><g
     id="g218"
     inkscape:groupmode="layer"
     inkscape:label="favicon"
     transform="matrix(1.3333333,0,0,-1.3333333,-337.98476,905.80178)"><g
       id="g220" /><g
       id="g222"
       transform="matrix(0.15284855,0,0,0.11811024,253.48858,585.80805)"><g
         id="g224"
         clip-path="url(#clipPath228)"><path
           d="M 0,-4.076958e-5 H 612 V 791.99996 H 0 Z"
           style="fill:#ffffff;fill-opacity:1;fill-rule:nonzero;stroke:none"
           id="path230" /></g></g><g
       id="g232"
       transform="translate(8.0040375,-59.148048)"><g
         id="g234"
         transform="matrix(0.5454546,0,0,-0.5454546,0,792)"><path
           d="m 492.9416,131.5386 c 0.1026,-0.8291 0.1559,-1.2591 0.1597,-1.2901 l 7e-4,-0.004 -0.0134,0.2479 c -0.0113,0.1848 -0.1238,2.0328 -0.3375,5.5442 -0.2138,3.5114 -0.3972,9.4907 -0.5504,17.938 -0.1531,8.4471 -0.2981,24.2465 -0.4348,47.3982 -0.1368,23.1515 -0.91937,36.59405 -1.6338,40.4817"
           style="fill:none;stroke:#000000;stroke-width:11.9815;stroke-linecap:round;stroke-linejoin:round;stroke-miterlimit:10;stroke-dasharray:none;stroke-opacity:1"
           id="path236"
           sodipodi:nodetypes="cccccccc" /></g><g
         id="g238"
         transform="matrix(0.5454546,0,0,-0.5454546,0,792)"><path
           d="m 514.8049,159.5823 c 2.7628,3.562 6.8318,9.1128 12.207,16.6526 3.3998,4.7684 5.8587,8.3717 7.3765,10.81 2.2619,3.6332 4.3522,7.6466 6.2709,12.0403"
           style="fill:none;stroke:#000000;stroke-width:11.9815;stroke-linecap:round;stroke-linejoin:round;stroke-miterlimit:10;stroke-dasharray:none;stroke-opacity:1"
           id="path240" /></g><g
         id="g242"
         transform="matrix(0.5454546,0,0,-0.5454546,0,792)"><path
           d="m 579.1519,130.9602 c 0.7789,-0.6488 1.183,-0.9854 1.2125,-1.01 0.0207,-0.0171 -0.007,0.0213 -0.0828,0.1152 -0.0758,0.0939 -0.8344,1.0331 -2.2757,2.8174 -1.4414,1.7842 -3.2298,4.4966 -5.3654,8.1372 -2.1356,3.6406 -3.9521,6.8642 -5.4496,9.6707 -2.2188,4.1583 -4.7343,8.8991 -7.5465,14.2224"
           style="fill:none;stroke:#000000;stroke-width:11.9815;stroke-linecap:round;stroke-linejoin:round;stroke-miterlimit:10;stroke-dasharray:none;stroke-opacity:1"
           id="path244" /></g><g
         id="g246"
         transform="matrix(0.5454546,0,0,-0.5454546,0,792)"><path
           d="m 579.7629,190.4089 c 0,0 1.2305,1.0857 1.2605,6.0227 0.0301,4.9371 0.021,11.6652 -0.0272,20.1846 -0.0482,8.5192 -0.2358,15.6375 -0.5629,21.3547"
           style="fill:none;stroke:#000000;stroke-width:11.9815;stroke-linecap:round;stroke-linejoin:round;stroke-miterlimit:10;stroke-dasharray:none;stroke-opacity:1"
           id="path248"
           sodipodi:nodetypes="ccsc" /></g><g
         id="g250"
         transform="matrix(0.7732049,0,0,-0.5454546,264.0771,724.3997)" /></g></g></svg>
